<svg width="703" height="703" viewBox="0 0 703 703" fill="none" xmlns="http://www.w3.org/2000/svg">
<path d="M351.497 0.5C545.347 0.500165 702.493 157.647 702.493 351.497C702.493 545.347 545.347 702.494 351.497 702.494C157.647 702.494 0.5 545.348 0.5 351.497C0.500115 157.647 157.647 0.5 351.497 0.5Z" fill="url(#paint0_linear_218_43)" stroke="#E5FF00"/>
<g filter="url(#filter0_d_218_43)">
<ellipse cx="351.499" cy="351.499" rx="247.665" ry="247.665" transform="rotate(180 351.499 351.499)" fill="url(#paint1_linear_218_43)" shape-rendering="crispEdges"/>
<path d="M351.499 598.664C214.994 598.664 104.335 488.004 104.335 351.499C104.335 214.994 214.994 104.334 351.499 104.334C488.004 104.334 598.664 214.994 598.664 351.499C598.664 488.004 488.004 598.664 351.499 598.664Z" stroke="#E5FF00" shape-rendering="crispEdges"/>
</g>
<g filter="url(#filter1_d_218_43)">
<ellipse cx="351.502" cy="351.5" rx="145.535" ry="145.535" fill="url(#paint2_linear_218_43)" shape-rendering="crispEdges"/>
<path d="M351.502 206.465C431.602 206.465 496.536 271.399 496.536 351.5C496.536 431.6 431.602 496.535 351.502 496.535C271.401 496.535 206.467 431.601 206.467 351.5C206.467 271.399 271.401 206.465 351.502 206.465Z" stroke="#E5FF00" shape-rendering="crispEdges"/>
</g>
<g filter="url(#filter2_d_218_43)">
<ellipse cx="353.202" cy="350.643" rx="74.044" ry="74.8952" fill="#E5FF00"/>
</g>
<ellipse cx="430.759" cy="695.724" rx="7.27498" ry="7.27499" fill="#E5FF00"/>
<path d="M384.685 328.037V345.63M384.685 345.63H366.58M384.685 345.63L370.684 332.846C367.441 329.693 363.429 327.389 359.022 326.151C354.615 324.912 349.957 324.778 345.483 325.762C341.009 326.746 336.864 328.815 333.435 331.777C330.006 334.738 327.405 338.495 325.875 342.698M318.301 374.953V357.359M318.301 357.359H336.406M318.301 357.359L332.302 370.144C335.545 373.297 339.557 375.601 343.964 376.839C348.371 378.078 353.029 378.212 357.503 377.228C361.977 376.244 366.122 374.175 369.551 371.213C372.98 368.252 375.581 364.494 377.111 360.292" stroke="#4B5300" stroke-width="8" stroke-linecap="round" stroke-linejoin="round"/>
<ellipse cx="599.226" cy="351.879" rx="7.27498" ry="7.27499" fill="#E5FF00"/>
<ellipse cx="353.414" cy="206.384" rx="7.27498" ry="7.27499" fill="#E5FF00"/>
<ellipse cx="111.42" cy="294.443" rx="7.27498" ry="7.27499" fill="#E5FF00"/>
<ellipse cx="178.046" cy="528.009" rx="7.27498" ry="7.27499" fill="#E5FF00"/>
<ellipse cx="118.31" cy="87.6773" rx="7.27498" ry="7.27499" fill="#E5FF00"/>
<ellipse cx="465.98" cy="442.244" rx="7.27498" ry="7.27499" fill="#E5FF00"/>
<ellipse cx="384.808" cy="104.527" rx="7.27498" ry="7.27499" fill="#E5FF00"/>
<ellipse cx="15.7008" cy="449.906" rx="7.27498" ry="7.27499" fill="#E5FF00"/>
<ellipse cx="206.384" cy="370.261" rx="7.27498" ry="7.27499" fill="#E5FF00"/>
<ellipse cx="695.724" cy="418.504" rx="7.27498" ry="7.27499" fill="#E5FF00"/>
<ellipse cx="573.959" cy="80.023" rx="7.27498" ry="7.27499" fill="#E5FF00"/>
<defs>
<filter id="filter0_d_218_43" x="65.634" y="65.634" width="571.73" height="571.73" filterUnits="userSpaceOnUse" color-interpolation-filters="sRGB">
<feFlood flood-opacity="0" result="BackgroundImageFix"/>
<feColorMatrix in="SourceAlpha" type="matrix" values="0 0 0 0 0 0 0 0 0 0 0 0 0 0 0 0 0 0 127 0" result="hardAlpha"/>
<feOffset/>
<feGaussianBlur stdDeviation="19.1"/>
<feComposite in2="hardAlpha" operator="out"/>
<feColorMatrix type="matrix" values="0 0 0 0 0.898039 0 0 0 0 1 0 0 0 0 0 0 0 0 0.29 0"/>
<feBlend mode="normal" in2="BackgroundImageFix" result="effect1_dropShadow_218_43"/>
<feBlend mode="normal" in="SourceGraphic" in2="effect1_dropShadow_218_43" result="shape"/>
</filter>
<filter id="filter1_d_218_43" x="170.067" y="170.065" width="362.87" height="362.87" filterUnits="userSpaceOnUse" color-interpolation-filters="sRGB">
<feFlood flood-opacity="0" result="BackgroundImageFix"/>
<feColorMatrix in="SourceAlpha" type="matrix" values="0 0 0 0 0 0 0 0 0 0 0 0 0 0 0 0 0 0 127 0" result="hardAlpha"/>
<feMorphology radius="7" operator="dilate" in="SourceAlpha" result="effect1_dropShadow_218_43"/>
<feOffset/>
<feGaussianBlur stdDeviation="14.45"/>
<feComposite in2="hardAlpha" operator="out"/>
<feColorMatrix type="matrix" values="0 0 0 0 0.898039 0 0 0 0 1 0 0 0 0 0 0 0 0 0.2 0"/>
<feBlend mode="normal" in2="BackgroundImageFix" result="effect1_dropShadow_218_43"/>
<feBlend mode="normal" in="SourceGraphic" in2="effect1_dropShadow_218_43" result="shape"/>
</filter>
<filter id="filter2_d_218_43" x="237.158" y="233.748" width="232.088" height="233.791" filterUnits="userSpaceOnUse" color-interpolation-filters="sRGB">
<feFlood flood-opacity="0" result="BackgroundImageFix"/>
<feColorMatrix in="SourceAlpha" type="matrix" values="0 0 0 0 0 0 0 0 0 0 0 0 0 0 0 0 0 0 127 0" result="hardAlpha"/>
<feMorphology radius="16" operator="dilate" in="SourceAlpha" result="effect1_dropShadow_218_43"/>
<feOffset/>
<feGaussianBlur stdDeviation="13"/>
<feComposite in2="hardAlpha" operator="out"/>
<feColorMatrix type="matrix" values="0 0 0 0 0.898039 0 0 0 0 1 0 0 0 0 0 0 0 0 0.25 0"/>
<feBlend mode="normal" in2="BackgroundImageFix" result="effect1_dropShadow_218_43"/>
<feBlend mode="normal" in="SourceGraphic" in2="effect1_dropShadow_218_43" result="shape"/>
</filter>
<linearGradient id="paint0_linear_218_43" x1="8.51635e-06" y1="56.7969" x2="702.994" y2="646.197" gradientUnits="userSpaceOnUse">
<stop stop-color="#E5FF00" stop-opacity="0.25"/>
<stop offset="1" stop-color="#E5FF00" stop-opacity="0.09"/>
</linearGradient>
<linearGradient id="paint1_linear_218_43" x1="103.835" y1="143.853" x2="599.165" y2="559.144" gradientUnits="userSpaceOnUse">
<stop stop-color="#E5FF00" stop-opacity="0.25"/>
<stop offset="1" stop-color="#E5FF00" stop-opacity="0"/>
</linearGradient>
<linearGradient id="paint2_linear_218_43" x1="205.967" y1="229.481" x2="497.037" y2="473.518" gradientUnits="userSpaceOnUse">
<stop stop-color="#E5FF00" stop-opacity="0.25"/>
<stop offset="1" stop-color="#E5FF00" stop-opacity="0"/>
</linearGradient>
</defs>
</svg>
